<svg width="242" height="26" viewBox="0 0 242 26" fill="none" xmlns="http://www.w3.org/2000/svg">
<path d="M11.916 25H7.16797V17.5459C6.11654 17.2803 5.14811 16.8542 4.2627 16.2676C3.38835 15.681 2.63574 14.9837 2.00488 14.1758C1.37402 13.3568 0.88151 12.4548 0.527344 11.4697C0.184245 10.4736 0.0126953 9.42773 0.0126953 8.33203V1.19336H4.77734V8.33203C4.77734 8.98503 4.89909 9.60482 5.14258 10.1914C5.39714 10.7669 5.74023 11.2705 6.17188 11.7021C6.60352 12.1338 7.1071 12.4769 7.68262 12.7314C8.26921 12.9749 8.889 13.0967 9.54199 13.0967C10.195 13.0967 10.8092 12.9749 11.3848 12.7314C11.9714 12.4769 12.4805 12.1338 12.9121 11.7021C13.3438 11.2705 13.6813 10.7669 13.9248 10.1914C14.1794 9.60482 14.3066 8.98503 14.3066 8.33203V1.19336H19.0547V8.33203C19.0547 9.42773 18.8776 10.4736 18.5234 11.4697C18.1803 12.4548 17.6934 13.3568 17.0625 14.1758C16.4316 14.9837 15.679 15.681 14.8047 16.2676C13.9303 16.8542 12.9674 17.2803 11.916 17.5459V25ZM38.2959 15.9521C38.2959 17.2803 38.0579 18.5199 37.582 19.6709C37.1061 20.8109 36.4587 21.8014 35.6396 22.6426C34.8206 23.4727 33.8577 24.1312 32.751 24.6182C31.6553 25.0941 30.4766 25.332 29.2148 25.332C27.9642 25.332 26.7855 25.0941 25.6787 24.6182C24.583 24.1312 23.6201 23.4727 22.79 22.6426C21.971 21.8014 21.3236 20.8109 20.8477 19.6709C20.3717 18.5199 20.1338 17.2803 20.1338 15.9521C20.1338 14.6019 20.3717 13.3512 20.8477 12.2002C21.3236 11.0492 21.971 10.0586 22.79 9.22852C23.6201 8.38737 24.583 7.72884 25.6787 7.25293C26.7855 6.77702 27.9642 6.53906 29.2148 6.53906C30.4766 6.53906 31.6553 6.76595 32.751 7.21973C33.8577 7.66243 34.8206 8.29883 35.6396 9.12891C36.4587 9.94792 37.1061 10.9385 37.582 12.1006C38.0579 13.2516 38.2959 14.5355 38.2959 15.9521ZM33.7305 15.9521C33.7305 15.2217 33.6087 14.5632 33.3652 13.9766C33.1328 13.3789 32.8118 12.8698 32.4023 12.4492C31.9928 12.0176 31.5114 11.6911 30.958 11.4697C30.4157 11.2373 29.8346 11.1211 29.2148 11.1211C28.5951 11.1211 28.0085 11.2373 27.4551 11.4697C26.9128 11.6911 26.4368 12.0176 26.0273 12.4492C25.6289 12.8698 25.3135 13.3789 25.0811 13.9766C24.8486 14.5632 24.7324 15.2217 24.7324 15.9521C24.7324 16.6383 24.8486 17.2747 25.0811 17.8613C25.3135 18.4479 25.6289 18.957 26.0273 19.3887C26.4368 19.8203 26.9128 20.1634 27.4551 20.418C28.0085 20.6615 28.5951 20.7832 29.2148 20.7832C29.8346 20.7832 30.4157 20.667 30.958 20.4346C31.5114 20.2021 31.9928 19.8757 32.4023 19.4551C32.8118 19.0345 33.1328 18.5254 33.3652 17.9277C33.6087 17.3301 33.7305 16.6715 33.7305 15.9521ZM53.8682 22.9248C53.5029 23.2568 53.11 23.5723 52.6895 23.8711C52.2799 24.1589 51.8483 24.4134 51.3945 24.6348C50.9408 24.8451 50.4704 25.0111 49.9834 25.1328C49.5075 25.2656 49.0205 25.332 48.5225 25.332C47.4268 25.332 46.3975 25.1383 45.4346 24.751C44.4717 24.3636 43.625 23.8158 42.8945 23.1074C42.1751 22.388 41.6051 21.5192 41.1846 20.501C40.7751 19.4717 40.5703 18.3206 40.5703 17.0479V7.21973H45.0859V17.0479C45.0859 17.6455 45.1745 18.1823 45.3516 18.6582C45.5397 19.123 45.7887 19.516 46.0986 19.8369C46.4085 20.1579 46.7682 20.4014 47.1777 20.5674C47.5983 20.7334 48.0465 20.8164 48.5225 20.8164C48.9873 20.8164 49.4245 20.7113 49.834 20.501C50.2546 20.2796 50.6198 19.9919 50.9297 19.6377C51.2396 19.2835 51.4831 18.8851 51.6602 18.4424C51.8372 17.9886 51.9258 17.5238 51.9258 17.0479V7.21973H56.458V25H55.3623L53.8682 22.9248ZM65.1406 3.98242C65.1406 4.4694 65.0908 4.99512 64.9912 5.55957C64.9027 6.11296 64.7533 6.66634 64.543 7.21973C64.3438 7.76204 64.0781 8.28223 63.7461 8.78027C63.4141 9.27832 63.0156 9.69889 62.5508 10.042L60.7578 8.78027C61.0566 8.42611 61.2835 8.08854 61.4385 7.76758C61.5934 7.44661 61.7152 7.12565 61.8037 6.80469C61.4717 6.74935 61.1618 6.63867 60.874 6.47266C60.5863 6.30664 60.3372 6.10189 60.127 5.8584C59.9277 5.60384 59.7673 5.31608 59.6455 4.99512C59.5238 4.67415 59.4629 4.33659 59.4629 3.98242C59.4629 3.60612 59.5348 3.24642 59.6787 2.90332C59.8337 2.56022 60.0384 2.26139 60.293 2.00684C60.5586 1.74121 60.8574 1.53646 61.1895 1.39258C61.5326 1.23763 61.8978 1.16016 62.2852 1.16016C62.6836 1.16016 63.0544 1.23763 63.3975 1.39258C63.7516 1.53646 64.056 1.74121 64.3105 2.00684C64.5651 2.26139 64.7643 2.56022 64.9082 2.90332C65.0632 3.24642 65.1406 3.60612 65.1406 3.98242ZM72.7939 25H68.2617V7.21973H69.3574L70.8516 9.32812C71.582 8.66406 72.4121 8.15495 73.3418 7.80078C74.2715 7.43555 75.2344 7.25293 76.2305 7.25293H80.2314V11.7686H76.2305C75.7546 11.7686 75.3063 11.8571 74.8857 12.0342C74.4652 12.2113 74.0999 12.4548 73.79 12.7646C73.4801 13.0745 73.2367 13.4398 73.0596 13.8604C72.8825 14.2809 72.7939 14.7292 72.7939 15.2051V25ZM89.0801 20.6504C89.2572 20.7057 89.4342 20.7445 89.6113 20.7666C89.7884 20.7777 89.9655 20.7832 90.1426 20.7832C90.5853 20.7832 91.0114 20.7223 91.4209 20.6006C91.8304 20.4788 92.2122 20.3073 92.5664 20.0859C92.9316 19.8535 93.2526 19.5768 93.5293 19.2559C93.8171 18.9238 94.0495 18.5586 94.2266 18.1602L97.5469 21.4971C97.1263 22.0947 96.6393 22.6315 96.0859 23.1074C95.5436 23.5833 94.9515 23.9873 94.3096 24.3193C93.6787 24.6514 93.0091 24.9004 92.3008 25.0664C91.6035 25.2435 90.8841 25.332 90.1426 25.332C88.8919 25.332 87.7132 25.0996 86.6064 24.6348C85.5107 24.1699 84.5479 23.5225 83.7178 22.6924C82.8988 21.8623 82.2513 20.8773 81.7754 19.7373C81.2995 18.5863 81.0615 17.3245 81.0615 15.9521C81.0615 14.5465 81.2995 13.2627 81.7754 12.1006C82.2513 10.9385 82.8988 9.94792 83.7178 9.12891C84.5479 8.3099 85.5107 7.6735 86.6064 7.21973C87.7132 6.76595 88.8919 6.53906 90.1426 6.53906C90.8841 6.53906 91.609 6.6276 92.3174 6.80469C93.0257 6.98177 93.6953 7.23633 94.3262 7.56836C94.9681 7.90039 95.5658 8.3099 96.1191 8.79688C96.6725 9.27279 97.1595 9.80957 97.5801 10.4072L89.0801 20.6504ZM91.4043 11.3037C91.194 11.2262 90.9837 11.1764 90.7734 11.1543C90.5742 11.1322 90.3639 11.1211 90.1426 11.1211C89.5228 11.1211 88.9362 11.2373 88.3828 11.4697C87.8405 11.6911 87.3646 12.012 86.9551 12.4326C86.5566 12.8532 86.2412 13.3623 86.0088 13.96C85.7764 14.5465 85.6602 15.2106 85.6602 15.9521C85.6602 16.1182 85.6657 16.3063 85.6768 16.5166C85.6989 16.7269 85.7266 16.9427 85.7598 17.1641C85.804 17.3743 85.8538 17.5791 85.9092 17.7783C85.9645 17.9775 86.0365 18.1546 86.125 18.3096L91.4043 11.3037Z" fill="black"/>
<path d="M133.506 18.1934C133.506 19.1784 133.318 20.1081 132.941 20.9824C132.576 21.8457 132.067 22.6038 131.414 23.2568C130.772 23.8988 130.014 24.4079 129.14 24.7842C128.276 25.1494 127.352 25.332 126.367 25.332C125.482 25.332 124.63 25.1771 123.811 24.8672C123.003 24.5573 122.272 24.1035 121.619 23.5059C120.966 24.1035 120.23 24.5573 119.411 24.8672C118.592 25.1771 117.74 25.332 116.854 25.332C115.869 25.332 114.94 25.1494 114.065 24.7842C113.202 24.4079 112.444 23.8988 111.791 23.2568C111.149 22.6038 110.64 21.8457 110.264 20.9824C109.898 20.1081 109.716 19.1784 109.716 18.1934V1.19336H114.48V18.1934C114.48 18.5254 114.541 18.8408 114.663 19.1396C114.785 19.4274 114.951 19.682 115.161 19.9033C115.382 20.1136 115.637 20.2796 115.925 20.4014C116.213 20.5231 116.522 20.584 116.854 20.584C117.187 20.584 117.496 20.5231 117.784 20.4014C118.072 20.2796 118.321 20.1136 118.531 19.9033C118.753 19.682 118.924 19.4274 119.046 19.1396C119.168 18.8408 119.229 18.5254 119.229 18.1934V1.19336H123.993V18.1934C123.993 18.5254 124.054 18.8408 124.176 19.1396C124.298 19.4274 124.464 19.682 124.674 19.9033C124.895 20.1136 125.15 20.2796 125.438 20.4014C125.725 20.5231 126.035 20.584 126.367 20.584C126.699 20.584 127.009 20.5231 127.297 20.4014C127.585 20.2796 127.834 20.1136 128.044 19.9033C128.265 19.682 128.437 19.4274 128.559 19.1396C128.691 18.8408 128.758 18.5254 128.758 18.1934V1.19336H133.506V18.1934ZM144.131 20.6504C144.308 20.7057 144.485 20.7445 144.662 20.7666C144.839 20.7777 145.016 20.7832 145.193 20.7832C145.636 20.7832 146.062 20.7223 146.472 20.6006C146.881 20.4788 147.263 20.3073 147.617 20.0859C147.982 19.8535 148.303 19.5768 148.58 19.2559C148.868 18.9238 149.1 18.5586 149.277 18.1602L152.598 21.4971C152.177 22.0947 151.69 22.6315 151.137 23.1074C150.594 23.5833 150.002 23.9873 149.36 24.3193C148.729 24.6514 148.06 24.9004 147.352 25.0664C146.654 25.2435 145.935 25.332 145.193 25.332C143.943 25.332 142.764 25.0996 141.657 24.6348C140.562 24.1699 139.599 23.5225 138.769 22.6924C137.95 21.8623 137.302 20.8773 136.826 19.7373C136.35 18.5863 136.112 17.3245 136.112 15.9521C136.112 14.5465 136.35 13.2627 136.826 12.1006C137.302 10.9385 137.95 9.94792 138.769 9.12891C139.599 8.3099 140.562 7.6735 141.657 7.21973C142.764 6.76595 143.943 6.53906 145.193 6.53906C145.935 6.53906 146.66 6.6276 147.368 6.80469C148.076 6.98177 148.746 7.23633 149.377 7.56836C150.019 7.90039 150.617 8.3099 151.17 8.79688C151.723 9.27279 152.21 9.80957 152.631 10.4072L144.131 20.6504ZM146.455 11.3037C146.245 11.2262 146.035 11.1764 145.824 11.1543C145.625 11.1322 145.415 11.1211 145.193 11.1211C144.574 11.1211 143.987 11.2373 143.434 11.4697C142.891 11.6911 142.415 12.012 142.006 12.4326C141.607 12.8532 141.292 13.3623 141.06 13.96C140.827 14.5465 140.711 15.2106 140.711 15.9521C140.711 16.1182 140.716 16.3063 140.728 16.5166C140.75 16.7269 140.777 16.9427 140.811 17.1641C140.855 17.3743 140.905 17.5791 140.96 17.7783C141.015 17.9775 141.087 18.1546 141.176 18.3096L146.455 11.3037ZM159.487 25H154.922V0.147461H159.487V25ZM178.496 10.7559L175.176 14.0928C175.01 13.6279 174.783 13.2129 174.495 12.8477C174.207 12.4714 173.881 12.1559 173.516 11.9014C173.161 11.6468 172.774 11.4531 172.354 11.3203C171.933 11.1875 171.501 11.1211 171.059 11.1211C170.439 11.1211 169.852 11.2484 169.299 11.5029C168.757 11.7575 168.281 12.1172 167.871 12.582C167.473 13.0358 167.157 13.5781 166.925 14.209C166.692 14.8398 166.576 15.5371 166.576 16.3008C166.576 16.9206 166.692 17.5016 166.925 18.0439C167.157 18.5863 167.473 19.0622 167.871 19.4717C168.281 19.8812 168.757 20.2021 169.299 20.4346C169.852 20.667 170.439 20.7832 171.059 20.7832C171.501 20.7832 171.927 20.7223 172.337 20.6006C172.746 20.4788 173.128 20.3073 173.482 20.0859C173.848 19.8535 174.169 19.5768 174.445 19.2559C174.733 18.9238 174.965 18.5586 175.143 18.1602L178.463 21.4971C178.042 22.0947 177.555 22.6315 177.002 23.1074C176.46 23.5833 175.868 23.9873 175.226 24.3193C174.595 24.6514 173.925 24.9004 173.217 25.0664C172.52 25.2435 171.8 25.332 171.059 25.332C169.808 25.332 168.629 25.0996 167.522 24.6348C166.427 24.1589 165.464 23.5114 164.634 22.6924C163.815 21.8734 163.167 20.916 162.691 19.8203C162.215 18.7246 161.978 17.5514 161.978 16.3008C161.978 14.9395 162.215 13.6667 162.691 12.4824C163.167 11.2982 163.815 10.2689 164.634 9.39453C165.464 8.50911 166.427 7.81185 167.522 7.30273C168.629 6.79362 169.808 6.53906 171.059 6.53906C171.8 6.53906 172.525 6.63314 173.233 6.82129C173.953 7.00944 174.633 7.28613 175.275 7.65137C175.928 8.00553 176.526 8.44271 177.068 8.96289C177.622 9.48307 178.098 10.0807 178.496 10.7559ZM197.638 15.9521C197.638 17.2803 197.4 18.5199 196.924 19.6709C196.448 20.8109 195.8 21.8014 194.981 22.6426C194.162 23.4727 193.2 24.1312 192.093 24.6182C190.997 25.0941 189.818 25.332 188.557 25.332C187.306 25.332 186.127 25.0941 185.021 24.6182C183.925 24.1312 182.962 23.4727 182.132 22.6426C181.313 21.8014 180.665 20.8109 180.189 19.6709C179.714 18.5199 179.476 17.2803 179.476 15.9521C179.476 14.6019 179.714 13.3512 180.189 12.2002C180.665 11.0492 181.313 10.0586 182.132 9.22852C182.962 8.38737 183.925 7.72884 185.021 7.25293C186.127 6.77702 187.306 6.53906 188.557 6.53906C189.818 6.53906 190.997 6.76595 192.093 7.21973C193.2 7.66243 194.162 8.29883 194.981 9.12891C195.8 9.94792 196.448 10.9385 196.924 12.1006C197.4 13.2516 197.638 14.5355 197.638 15.9521ZM193.072 15.9521C193.072 15.2217 192.951 14.5632 192.707 13.9766C192.475 13.3789 192.154 12.8698 191.744 12.4492C191.335 12.0176 190.853 11.6911 190.3 11.4697C189.757 11.2373 189.176 11.1211 188.557 11.1211C187.937 11.1211 187.35 11.2373 186.797 11.4697C186.255 11.6911 185.779 12.0176 185.369 12.4492C184.971 12.8698 184.655 13.3789 184.423 13.9766C184.19 14.5632 184.074 15.2217 184.074 15.9521C184.074 16.6383 184.19 17.2747 184.423 17.8613C184.655 18.4479 184.971 18.957 185.369 19.3887C185.779 19.8203 186.255 20.1634 186.797 20.418C187.35 20.6615 187.937 20.7832 188.557 20.7832C189.176 20.7832 189.757 20.667 190.3 20.4346C190.853 20.2021 191.335 19.8757 191.744 19.4551C192.154 19.0345 192.475 18.5254 192.707 17.9277C192.951 17.3301 193.072 16.6715 193.072 15.9521ZM222.756 25H218.24V13.7109C218.24 13.401 218.179 13.1077 218.058 12.8311C217.947 12.5544 217.786 12.3109 217.576 12.1006C217.366 11.8903 217.122 11.7298 216.846 11.6191C216.569 11.4974 216.276 11.4365 215.966 11.4365C215.656 11.4365 215.363 11.4974 215.086 11.6191C214.82 11.7298 214.582 11.8903 214.372 12.1006C214.173 12.3109 214.012 12.5544 213.891 12.8311C213.78 13.1077 213.725 13.401 213.725 13.7109V25H209.192V13.7109C209.192 13.401 209.132 13.1077 209.01 12.8311C208.899 12.5544 208.739 12.3109 208.528 12.1006C208.318 11.8903 208.075 11.7298 207.798 11.6191C207.521 11.4974 207.228 11.4365 206.918 11.4365C206.608 11.4365 206.315 11.4974 206.038 11.6191C205.772 11.7298 205.535 11.8903 205.324 12.1006C205.125 12.3109 204.965 12.5544 204.843 12.8311C204.732 13.1077 204.677 13.401 204.677 13.7109V25H200.145V7.21973H201.24L202.469 8.58105C203.1 8.0498 203.791 7.6403 204.544 7.35254C205.308 7.05371 206.099 6.9043 206.918 6.9043C207.748 6.9043 208.556 7.05924 209.342 7.36914C210.139 7.67904 210.836 8.21582 211.434 8.97949C211.71 8.60319 212.026 8.28223 212.38 8.0166C212.734 7.75098 213.105 7.53516 213.492 7.36914C213.891 7.20312 214.3 7.08691 214.721 7.02051C215.141 6.94303 215.556 6.9043 215.966 6.9043C216.907 6.9043 217.786 7.08138 218.605 7.43555C219.436 7.78971 220.155 8.27669 220.764 8.89648C221.383 9.50521 221.87 10.2246 222.225 11.0547C222.579 11.8848 222.756 12.7702 222.756 13.7109V25ZM233.148 20.6504C233.326 20.7057 233.503 20.7445 233.68 20.7666C233.857 20.7777 234.034 20.7832 234.211 20.7832C234.654 20.7832 235.08 20.7223 235.489 20.6006C235.899 20.4788 236.281 20.3073 236.635 20.0859C237 19.8535 237.321 19.5768 237.598 19.2559C237.885 18.9238 238.118 18.5586 238.295 18.1602L241.615 21.4971C241.195 22.0947 240.708 22.6315 240.154 23.1074C239.612 23.5833 239.02 23.9873 238.378 24.3193C237.747 24.6514 237.077 24.9004 236.369 25.0664C235.672 25.2435 234.952 25.332 234.211 25.332C232.96 25.332 231.782 25.0996 230.675 24.6348C229.579 24.1699 228.616 23.5225 227.786 22.6924C226.967 21.8623 226.32 20.8773 225.844 19.7373C225.368 18.5863 225.13 17.3245 225.13 15.9521C225.13 14.5465 225.368 13.2627 225.844 12.1006C226.32 10.9385 226.967 9.94792 227.786 9.12891C228.616 8.3099 229.579 7.6735 230.675 7.21973C231.782 6.76595 232.96 6.53906 234.211 6.53906C234.952 6.53906 235.677 6.6276 236.386 6.80469C237.094 6.98177 237.764 7.23633 238.395 7.56836C239.036 7.90039 239.634 8.3099 240.188 8.79688C240.741 9.27279 241.228 9.80957 241.648 10.4072L233.148 20.6504ZM235.473 11.3037C235.262 11.2262 235.052 11.1764 234.842 11.1543C234.643 11.1322 234.432 11.1211 234.211 11.1211C233.591 11.1211 233.005 11.2373 232.451 11.4697C231.909 11.6911 231.433 12.012 231.023 12.4326C230.625 12.8532 230.31 13.3623 230.077 13.96C229.845 14.5465 229.729 15.2106 229.729 15.9521C229.729 16.1182 229.734 16.3063 229.745 16.5166C229.767 16.7269 229.795 16.9427 229.828 17.1641C229.872 17.3743 229.922 17.5791 229.978 17.7783C230.033 17.9775 230.105 18.1546 230.193 18.3096L235.473 11.3037Z" fill="#698F3F"/>
</svg>
